<?xml version="1.0" encoding="utf-8"?>
<!-- Generator: Adobe Illustrator 19.0.0, SVG Export Plug-In . SVG Version: 6.00 Build 0)  -->
<svg version="1.1" id="Capa_1" xmlns="http://www.w3.org/2000/svg" xmlns:xlink="http://www.w3.org/1999/xlink" x="0px" y="0px"
	 viewBox="-6 373.1 92 95.8" style="enable-background:new -6 373.1 92 95.8;" xml:space="preserve">
<style type="text/css">
	.st0{fill:#00837B;}
	.st1{clip-path:url(#SVGID_2_);fill:#009087;}
	.st2{fill:#FFFFFF;}
</style>
<g id="XMLID_99_">
	<g>
		<rect id="XMLID_100_" x="-334.2" y="353.8" class="st0" width="737" height="1123.4"/>
	</g>
	<g>
		<defs>
			<rect id="SVGID_1_" x="-334.2" y="353.8" width="737" height="1123.4"/>
		</defs>
		<clipPath id="SVGID_2_">
			<use xlink:href="#SVGID_1_"  style="overflow:visible;"/>
		</clipPath>
		<polygon id="XMLID_101_" class="st1" points="10,470.7 416,470.7 416,349.3 79.1,349.5 		"/>
	</g>
</g>
<g id="XMLID_3_">
	<g id="XMLID_4_">
		<path id="XMLID_85_" class="st2" d="M7.9,427h4.9v8.3c-0.4,0.5-1.7,1-3.8,1c-5.3,0-6.2-5.6-6.2-10.4c0-5.5,0.9-10.3,5.5-10.3
			c2.8,0,3.8,2.3,3.8,4.2H17c0-4.3-2.6-7.3-8.7-7.3c-7.5,0-10.3,5.1-10.3,13.4c0,7.7,3.3,13.5,11.1,13.5c4.1,0,7.2-1.6,8.2-2.4
			v-13.1H8L7.9,427L7.9,427z"/>
		<path id="XMLID_57_" class="st2" d="M34.5,428c0-4.4-2.3-7.3-6.8-7.3c-5.4,0-7.7,3.4-7.7,8.5c0,6.6,3.3,10.4,9.1,10.4
			c1.9,0,3.5-0.2,5-0.7V436c-0.8,0.3-2.1,0.7-3.4,0.7c-5.1,0-6.8-5.1-6.8-7.6h10.7V428H34.5z M23.9,426.4c0.1-1.1,0.9-3.1,3.4-3.1
			c2.6,0,3.2,2,3.2,3.1H23.9z"/>
		<path id="XMLID_56_" class="st2" d="M41.8,424.4L41.8,424.4l-0.1-3.3h-4.2v18h4.2v-7.9c0-4.4,1.7-6.1,5.9-6.1v-4.4
			C44,420.7,42.8,422.7,41.8,424.4z"/>
		<path id="XMLID_53_" class="st2" d="M73.9,420.7c-5.4,0-7.7,3.4-7.7,8.5c0,6.6,3.3,10.4,9.1,10.4c1.9,0,3.5-0.2,5-0.7V436
			c-0.8,0.3-2.1,0.7-3.4,0.7c-5.1,0-6.8-5.1-6.8-7.6h10.7v-1C80.7,423.6,78.5,420.7,73.9,420.7z M70.2,426.4
			c0.1-1.1,0.9-3.1,3.4-3.1c2.6,0,3.2,2,3.2,3.1H70.2z"/>
		<polygon id="XMLID_52_" class="st2" points="58.3,428.9 65,421.1 59.9,421.1 54.1,428 54.1,418.1 49.9,418.1 49.9,439.1 
			54.1,439.1 54.1,430 54.2,430 60.5,439.1 65.6,439.1 		"/>
		<path id="XMLID_51_" class="st2" d="M20.4,444.4c0-0.7,0.5-1.2,1.3-1.2s1.2,0.5,1.2,1.4h0.6c0-1.2-0.6-1.9-1.9-1.9
			c-1.2,0-1.9,0.7-1.9,1.8c0,2.5,3.3,1.3,3.3,3.4c0,1-0.6,1.4-1.5,1.4s-1.4-0.6-1.4-1.5v-0.3h-0.6v0.2c0,1.3,0.7,2,2,2
			c1.2,0,2.1-0.7,2.1-2C23.7,445.3,20.4,446.4,20.4,444.4z"/>
		<path id="XMLID_48_" class="st2" d="M27.1,442.6c-1.4,0-2.2,1.1-2.2,3.5c0,2.5,0.8,3.5,2.2,3.5s2.2-1.1,2.2-3.5
			C29.3,443.7,28.5,442.6,27.1,442.6z M27.1,449.2c-1,0-1.6-0.8-1.6-3c0-2.2,0.6-3,1.6-3s1.6,0.8,1.6,3
			C28.7,448.4,28.1,449.2,27.1,449.2z"/>
		<path id="XMLID_47_" class="st2" d="M32.9,449.2c-1,0-1.6-0.8-1.6-3c0-2.2,0.6-3,1.6-3c0.9,0,1.4,0.7,1.4,1.6h0.6
			c0-1.1-0.6-2.1-2-2.1s-2.2,1.1-2.2,3.5c0,2.5,0.8,3.5,2.2,3.5c1.2,0,2-0.9,2-2.4h-0.6C34.3,448.5,33.8,449.2,32.9,449.2z"/>
		<rect id="XMLID_46_" x="36.2" y="442.8" class="st2" width="0.6" height="6.8"/>
		<polygon id="XMLID_45_" class="st2" points="39.1,446.3 41.6,446.3 41.6,445.8 39.1,445.8 39.1,443.3 41.8,443.3 41.8,442.8 
			38.4,442.8 38.4,449.6 41.9,449.6 41.9,449.1 39.1,449.1 		"/>
		<path id="XMLID_42_" class="st2" d="M44.8,442.8h-1.6v6.8h1.6c2,0,2.5-1.2,2.5-3.4C47.3,443.9,46.8,442.8,44.8,442.8z M44.8,449.1
			h-1v-5.8h1c1.3,0,1.9,0.7,1.9,2.9C46.7,448.4,46.1,449.1,44.8,449.1z"/>
		<path id="XMLID_39_" class="st2" d="M50.2,442.8l-2,6.8h0.7l0.6-2h2.4l0.6,2h0.7l-2-6.8H50.2z M49.6,447.1l1.1-3.9l0,0l1.1,3.9
			H49.6z"/>
		<path id="XMLID_36_" class="st2" d="M55.7,442.8H54v6.8h1.6c2,0,2.5-1.2,2.5-3.4C58.2,443.9,57.7,442.8,55.7,442.8z M55.6,449.1
			h-1v-5.8h1c1.3,0,1.9,0.7,1.9,2.9C57.5,448.4,57,449.1,55.6,449.1z"/>
		<path id="XMLID_35_" class="st2" d="M64.5,449.2c-1,0-1.6-0.8-1.6-3c0-2.2,0.6-3,1.6-3c0.9,0,1.3,0.7,1.3,1.6h0.6
			c0-1.1-0.6-2.1-2-2.1s-2.2,1.1-2.2,3.5c0,2.5,0.8,3.5,2.2,3.5c1.2,0,1.9-0.9,2-2.4h-0.6C65.9,448.5,65.4,449.2,64.5,449.2z"/>
		<rect id="XMLID_34_" x="67.9" y="442.8" class="st2" width="0.6" height="6.8"/>
		<polygon id="XMLID_33_" class="st2" points="71.7,448.9 71.7,448.9 70.2,442.8 69.6,442.8 71.4,449.6 72.1,449.6 73.9,442.8 
			73.3,442.8 		"/>
		<rect id="XMLID_32_" x="75" y="442.8" class="st2" width="0.6" height="6.8"/>
		<polygon id="XMLID_31_" class="st2" points="77.8,442.8 77.2,442.8 77.2,449.6 80.6,449.6 80.6,449.1 77.8,449.1 		"/>
		<polygon id="XMLID_30_" class="st2" points="29.6,400.4 24.9,400.4 24.9,396.9 29.2,396.9 29.2,395.4 24.9,395.4 24.9,392.3 
			29.4,392.3 29.4,390.8 23,390.8 23,401.8 29.6,401.8 		"/>
		<path id="XMLID_29_" class="st2" d="M35.9,399.2c0,0.7-0.5,1.5-1.9,1.5s-2.5-0.7-3.1-1.1v1.9c0.3,0.1,1.6,0.5,3,0.5
			c2.4,0,4-1.1,4-3.1c0-3.3-5.2-3.6-5.2-5.6c0-0.9,0.7-1.3,1.7-1.3c1.1,0,2,0.4,2.8,0.7V391c-0.4-0.1-1.5-0.3-2.7-0.3
			c-2.1,0-3.8,0.9-3.8,2.8C30.7,396.6,35.9,396.8,35.9,399.2z"/>
		<polygon id="XMLID_28_" class="st2" points="41.1,401.8 43,401.8 43,392.3 45.8,392.3 45.8,390.8 38.4,390.8 38.4,392.3 
			41.1,392.3 		"/>
		<path id="XMLID_27_" class="st2" d="M50.6,402c2.4,0,3.8-1.1,3.8-3.5v-7.6h-1.9v7.6c0,1.3-0.5,2.2-1.9,2.2c-1.5,0-2-1-2-2.2v-7.6
			h-1.9v7.6C46.8,400.9,48.4,402,50.6,402z"/>
		<path id="XMLID_24_" class="st2" d="M64.3,396.3c0-3.9-1.3-5.5-4.8-5.5h-2.7v11h2.7C61.7,401.8,64.3,401.4,64.3,396.3z
			 M58.6,392.2h0.9c2.3,0,2.8,1.5,2.8,4.1c0,3.4-0.9,4.2-2.8,4.2h-0.9V392.2z"/>
		<rect id="XMLID_23_" x="66.1" y="390.8" class="st2" width="1.9" height="11"/>
		<path id="XMLID_20_" class="st2" d="M74.2,402c3.4,0,4.4-2.5,4.4-5.7c0-3.2-1-5.7-4.4-5.7s-4.4,2.5-4.4,5.7
			C69.8,399.6,70.8,402,74.2,402z M74.2,392c1.9,0,2.4,2,2.4,4.4c0,2.3-0.5,4.4-2.4,4.4s-2.4-2-2.4-4.4C71.9,394,72.4,392,74.2,392z
			"/>
		<path id="XMLID_19_" class="st2" d="M24.9,413.5v-8H23v8.1c0,1.1-0.4,1.7-1.7,1.7c-0.7,0-1.3-0.2-1.6-0.4v1.5
			c0.5,0.1,1,0.2,1.6,0.2C24.4,416.7,24.9,415.5,24.9,413.5z"/>
		<path id="XMLID_18_" class="st2" d="M34.6,405.5h-1.9v7.6c0,1.3-0.5,2.2-1.9,2.2c-1.5,0-2-1-2-2.2v-7.6H27v7.6
			c0,2.4,1.6,3.5,3.8,3.5c2.4,0,3.8-1.1,3.8-3.5V405.5z"/>
		<path id="XMLID_15_" class="st2" d="M43.7,408.4c0-2.2-1.5-2.9-3.5-2.9h-3.3v11h1.9v-4.7h0.7c1.7,0,1.9,0.6,2.3,2.3l0.5,2.4h1.9
			l-0.7-3.1c-0.3-1.2-0.4-2.1-2-2.4l0,0C42.6,410.6,43.7,410.1,43.7,408.4z M39.4,410.4h-0.7v-3.6h1.5c1.1,0,1.6,0.6,1.6,1.8
			C41.8,410.2,40.6,410.4,39.4,410.4z"/>
		<rect id="XMLID_14_" x="45.7" y="405.5" class="st2" width="1.9" height="11"/>
		<path id="XMLID_11_" class="st2" d="M49.9,405.5v11h2.7c2.3,0,4.8-0.4,4.8-5.5c0-3.9-1.3-5.5-4.8-5.5H49.9z M55.4,410.9
			c0,3.4-0.9,4.2-2.8,4.2h-0.9v-8.4h0.9C54.9,406.8,55.4,408.3,55.4,410.9z"/>
		<rect id="XMLID_10_" x="59.2" y="405.5" class="st2" width="1.9" height="11"/>
		<path id="XMLID_9_" class="st2" d="M67.6,416.7c1.3,0,2.5-0.4,3-0.6v-1.6c-0.3,0.2-1.3,0.8-2.6,0.8c-2.2,0-3-1.9-3-4.5
			c0-1.7,0.4-4,2.3-4c1.4,0,1.6,1,1.6,1.9H71c0-1.7-1.1-3.2-3.7-3.2c-3.1,0-4.3,2.4-4.3,5.6C63,414.4,64.4,416.7,67.6,416.7z"/>
		<path id="XMLID_6_" class="st2" d="M71.8,411c0,3.2,1,5.7,4.4,5.7s4.4-2.5,4.4-5.7c0-3.2-1-5.7-4.4-5.7S71.8,407.8,71.8,411z
			 M78.7,411c0,2.3-0.5,4.4-2.4,4.4s-2.4-2-2.4-4.4c0-2.3,0.5-4.3,2.4-4.3C78.1,406.6,78.7,408.6,78.7,411z"/>
		<polygon id="XMLID_5_" class="st2" points="47.5,404.6 48.7,403.6 46.8,403.6 45.7,404.6 		"/>
	</g>
</g>
</svg>
